
<svg xmlns="http://www.w3.org/2000/svg" viewBox="0 0 120 120">
  <!-- Light blue background rectangle with margin -->
  <rect x="0" y="0" width="120" height="120" fill="#e6f2ff" />
  
  <!-- Bird graphic centered within the background -->
  <g transform="translate(15, 15)">
    <path 
      d="M21.7,76.5L21.7,76.5c6.4-18.1,6.4-37.8,0-55.9l0-0.1h1.6c21.5,0,41.7,10.4,54.2,28l0,0l0,0 c-12.5,17.6-32.7,28-54.2,28H21.7z M73.4,48.5L73.4,48.5 M17.5,76.8L17.5,76.8c6.7-18.2,6.7-38.1,0-56.3l0-0.1 M77.5,48.5h22 M0,32.5h21 M0,65.5h21"
      fill="none"
      stroke="#444"
      stroke-width="2"
    />
  </g>
</svg>